<?xml version="1.0" encoding="utf-8"?>
<!-- Generator: Adobe Illustrator 22.1.0, SVG Export Plug-In . SVG Version: 6.00 Build 0)  -->
<svg version="1.1" id="Layer_1" xmlns="http://www.w3.org/2000/svg" xmlns:xlink="http://www.w3.org/1999/xlink" x="0px" y="0px"
	 viewBox="0 0 612 792" style="enable-background:new 0 0 612 792;" xml:space="preserve">
<style type="text/css">
	.st0{fill:#345EAB;}
</style>
<g>
	<path class="st0" d="M65.3,42.4c-1.9,2.2-2.8,6.2-2.8,11.9v23.8h27v33.9h-27v104.5H24.6V112.1H7.9V78.2h16.7V41.3
		c0-23.9,13.7-35.9,41-35.9c6.4,0,14.3,1,23.8,2.9v32.7c-4.3-1.3-8.9-2-14-2C70.5,39.1,67.1,40.2,65.3,42.4z M114,183.9V8.6h37.9
		v162c0,5.9,0.9,10,2.8,12.2c1.9,2.2,5.3,3.3,10.2,3.3c5.1,0,9.7-0.7,14-2v32.7c-9.5,2-17.5,2.9-23.8,2.9
		C127.7,219.8,114,207.8,114,183.9z"/>
	<path class="st0" d="M573.2,78.2l-36.9,140.6h-44.5L465,131.5l-26.8,87.3h-44.5L356.6,78.2h38.8l21.4,93.4l25.6-93.4h45l25.8,93.4
		l21.1-93.4H573.2z"/>
</g>
<g>
	<path class="st0" d="M205.7,189.6l41.3-41.3l-41.8-41.8c-0.7,1.2-1.4,2.5-2,3.8c-5.5,11.1-8.2,23.5-8.2,37.2
		c0,13.9,2.7,26.4,8.2,37.5C203.9,186.6,204.8,188.1,205.7,189.6z"/>
	<path class="st0" d="M264.6,130.6l45.1-45.1c-0.8-0.5-1.6-1-2.4-1.5c-10.8-6.5-24-9.7-39.6-9.7c-15.6,0-28.8,3.2-39.8,9.7
		c-2.1,1.2-4.1,2.5-5.9,3.9L264.6,130.6z"/>
	<path class="st0" d="M264.6,166l-41.9,41.9c1.6,1.2,3.3,2.3,5.1,3.3c11,6.4,24.2,9.6,39.8,9.6c15.6,0,28.8-3.2,39.6-9.6
		c0.5-0.3,1.1-0.6,1.6-1L264.6,166z"/>
	<path class="st0" d="M331.7,110.3c-1.3-2.5-2.7-4.9-4.2-7.2l-45.2,45.2L327,193c1.7-2.5,3.3-5.2,4.7-8c5.5-11.1,8.2-23.6,8.2-37.5
		C339.9,133.8,337.2,121.3,331.7,110.3z"/>
</g>
</svg>
